<svg width="850" height="350" viewBox="0 0 850 350" fill="none" xmlns="http://www.w3.org/2000/svg">
<rect width="850" height="350" fill="white"/>
<path d="M269 188.7C264.133 188.7 259.733 187.867 255.8 186.2C251.933 184.533 248.867 182.133 246.6 179C244.333 175.867 243.167 172.167 243.1 167.9H258.1C258.3 170.767 259.3 173.033 261.1 174.7C262.967 176.367 265.5 177.2 268.7 177.2C271.967 177.2 274.533 176.433 276.4 174.9C278.267 173.3 279.2 171.233 279.2 168.7C279.2 166.633 278.567 164.933 277.3 163.6C276.033 162.267 274.433 161.233 272.5 160.5C270.633 159.7 268.033 158.833 264.7 157.9C260.167 156.567 256.467 155.267 253.6 154C250.8 152.667 248.367 150.7 246.3 148.1C244.3 145.433 243.3 141.9 243.3 137.5C243.3 133.367 244.333 129.767 246.4 126.7C248.467 123.633 251.367 121.3 255.1 119.7C258.833 118.033 263.1 117.2 267.9 117.2C275.1 117.2 280.933 118.967 285.4 122.5C289.933 125.967 292.433 130.833 292.9 137.1H277.5C277.367 134.7 276.333 132.733 274.4 131.2C272.533 129.6 270.033 128.8 266.9 128.8C264.167 128.8 261.967 129.5 260.3 130.9C258.7 132.3 257.9 134.333 257.9 137C257.9 138.867 258.5 140.433 259.7 141.7C260.967 142.9 262.5 143.9 264.3 144.7C266.167 145.433 268.767 146.3 272.1 147.3C276.633 148.633 280.333 149.967 283.2 151.3C286.067 152.633 288.533 154.633 290.6 157.3C292.667 159.967 293.7 163.467 293.7 167.8C293.7 171.533 292.733 175 290.8 178.2C288.867 181.4 286.033 183.967 282.3 185.9C278.567 187.767 274.133 188.7 269 188.7ZM302.237 160.1C302.237 154.5 303.337 149.533 305.537 145.2C307.804 140.867 310.838 137.533 314.638 135.2C318.504 132.867 322.804 131.7 327.538 131.7C331.671 131.7 335.271 132.533 338.338 134.2C341.471 135.867 343.971 137.967 345.838 140.5V132.6H359.938V188H345.838V179.9C344.038 182.5 341.538 184.667 338.338 186.4C335.204 188.067 331.571 188.9 327.438 188.9C322.771 188.9 318.504 187.7 314.638 185.3C310.838 182.9 307.804 179.533 305.537 175.2C303.337 170.8 302.237 165.767 302.237 160.1ZM345.838 160.3C345.838 156.9 345.171 154 343.838 151.6C342.504 149.133 340.704 147.267 338.438 146C336.171 144.667 333.738 144 331.138 144C328.538 144 326.138 144.633 323.938 145.9C321.738 147.167 319.938 149.033 318.538 151.5C317.204 153.9 316.538 156.767 316.538 160.1C316.538 163.433 317.204 166.367 318.538 168.9C319.938 171.367 321.738 173.267 323.938 174.6C326.204 175.933 328.604 176.6 331.138 176.6C333.738 176.6 336.171 175.967 338.438 174.7C340.704 173.367 342.504 171.5 343.838 169.1C345.171 166.633 345.838 163.7 345.838 160.3ZM399.011 144.1H389.311V188H375.111V144.1H368.811V132.6H375.111V129.8C375.111 123 377.044 118 380.911 114.8C384.778 111.6 390.611 110.1 398.411 110.3V122.1C395.011 122.033 392.644 122.6 391.311 123.8C389.978 125 389.311 127.167 389.311 130.3V132.6H399.011V144.1ZM459.584 159.1C459.584 161.1 459.45 162.9 459.184 164.5H418.684C419.017 168.5 420.417 171.633 422.884 173.9C425.35 176.167 428.384 177.3 431.984 177.3C437.184 177.3 440.884 175.067 443.084 170.6H458.184C456.584 175.933 453.517 180.333 448.984 183.8C444.45 187.2 438.884 188.9 432.284 188.9C426.95 188.9 422.15 187.733 417.884 185.4C413.684 183 410.384 179.633 407.984 175.3C405.65 170.967 404.484 165.967 404.484 160.3C404.484 154.567 405.65 149.533 407.984 145.2C410.317 140.867 413.584 137.533 417.784 135.2C421.984 132.867 426.817 131.7 432.284 131.7C437.55 131.7 442.25 132.833 446.384 135.1C450.584 137.367 453.817 140.6 456.084 144.8C458.417 148.933 459.584 153.7 459.584 159.1ZM445.084 155.1C445.017 151.5 443.717 148.633 441.184 146.5C438.65 144.3 435.55 143.2 431.884 143.2C428.417 143.2 425.484 144.267 423.084 146.4C420.75 148.467 419.317 151.367 418.784 155.1H445.084ZM491.002 188.9C486.469 188.9 482.402 188.1 478.802 186.5C475.202 184.833 472.336 182.6 470.202 179.8C468.136 177 467.002 173.9 466.802 170.5H480.902C481.169 172.633 482.202 174.4 484.002 175.8C485.869 177.2 488.169 177.9 490.902 177.9C493.569 177.9 495.636 177.367 497.102 176.3C498.636 175.233 499.402 173.867 499.402 172.2C499.402 170.4 498.469 169.067 496.602 168.2C494.802 167.267 491.902 166.267 487.902 165.2C483.769 164.2 480.369 163.167 477.702 162.1C475.102 161.033 472.836 159.4 470.902 157.2C469.036 155 468.102 152.033 468.102 148.3C468.102 145.233 468.969 142.433 470.702 139.9C472.502 137.367 475.036 135.367 478.302 133.9C481.636 132.433 485.536 131.7 490.002 131.7C496.602 131.7 501.869 133.367 505.802 136.7C509.736 139.967 511.902 144.4 512.302 150H498.902C498.702 147.8 497.769 146.067 496.102 144.8C494.502 143.467 492.336 142.8 489.602 142.8C487.069 142.8 485.102 143.267 483.702 144.2C482.369 145.133 481.702 146.433 481.702 148.1C481.702 149.967 482.636 151.4 484.502 152.4C486.369 153.333 489.269 154.3 493.202 155.3C497.202 156.3 500.502 157.333 503.102 158.4C505.702 159.467 507.936 161.133 509.802 163.4C511.736 165.6 512.736 168.533 512.802 172.2C512.802 175.4 511.902 178.267 510.102 180.8C508.369 183.333 505.836 185.333 502.502 186.8C499.236 188.2 495.402 188.9 491.002 188.9ZM575.795 159.1C575.795 161.1 575.661 162.9 575.395 164.5H534.895C535.228 168.5 536.628 171.633 539.095 173.9C541.561 176.167 544.595 177.3 548.195 177.3C553.395 177.3 557.095 175.067 559.295 170.6H574.395C572.795 175.933 569.728 180.333 565.195 183.8C560.661 187.2 555.095 188.9 548.495 188.9C543.161 188.9 538.361 187.733 534.095 185.4C529.895 183 526.595 179.633 524.195 175.3C521.861 170.967 520.695 165.967 520.695 160.3C520.695 154.567 521.861 149.533 524.195 145.2C526.528 140.867 529.795 137.533 533.995 135.2C538.195 132.867 543.028 131.7 548.495 131.7C553.761 131.7 558.461 132.833 562.595 135.1C566.795 137.367 570.028 140.6 572.295 144.8C574.628 148.933 575.795 153.7 575.795 159.1ZM561.295 155.1C561.228 151.5 559.928 148.633 557.395 146.5C554.861 144.3 551.761 143.2 548.095 143.2C544.628 143.2 541.695 144.267 539.295 146.4C536.961 148.467 535.528 151.367 534.995 155.1H561.295ZM600.013 141.2C601.813 138.267 604.147 135.967 607.013 134.3C609.947 132.633 613.28 131.8 617.013 131.8V146.5H613.313C608.913 146.5 605.58 147.533 603.313 149.6C601.113 151.667 600.013 155.267 600.013 160.4V188H586.013V132.6H600.013V141.2ZM649.543 175.1L663.543 132.6H678.443L657.943 188H640.943L620.543 132.6H635.543L649.543 175.1ZM737.806 159.1C737.806 161.1 737.673 162.9 737.406 164.5H696.906C697.24 168.5 698.64 171.633 701.106 173.9C703.573 176.167 706.606 177.3 710.206 177.3C715.406 177.3 719.106 175.067 721.306 170.6H736.406C734.806 175.933 731.74 180.333 727.206 183.8C722.673 187.2 717.106 188.9 710.506 188.9C705.173 188.9 700.373 187.733 696.106 185.4C691.906 183 688.606 179.633 686.206 175.3C683.873 170.967 682.706 165.967 682.706 160.3C682.706 154.567 683.873 149.533 686.206 145.2C688.54 140.867 691.806 137.533 696.006 135.2C700.206 132.867 705.04 131.7 710.506 131.7C715.773 131.7 720.473 132.833 724.606 135.1C728.806 137.367 732.04 140.6 734.306 144.8C736.64 148.933 737.806 153.7 737.806 159.1ZM723.306 155.1C723.24 151.5 721.94 148.633 719.406 146.5C716.873 144.3 713.773 143.2 710.106 143.2C706.64 143.2 703.706 144.267 701.306 146.4C698.973 148.467 697.54 151.367 697.006 155.1H723.306Z" fill="#151D48"/>
<rect x="70" y="87" width="132" height="132" rx="8" fill="#5D5FEF"/>
<path d="M122.739 128.55C120.071 131.268 120.071 135.666 122.789 138.384L128.719 144.314C134.303 149.898 134.303 158.991 128.719 164.575L117.847 153.703C115.055 150.911 113.647 147.229 113.647 143.573C113.647 139.916 115.055 136.234 117.847 133.442L122.665 128.624C122.69 128.599 122.715 128.574 122.739 128.55Z" fill="#5D5FEF" stroke="white" stroke-width="2" stroke-miterlimit="10"/>
<path d="M127.483 143.076L122.788 138.381C120.07 135.663 120.046 131.29 122.739 128.547C125.407 125.928 129.657 125.978 132.301 128.622C133.635 129.956 134.303 131.71 134.303 133.44C134.303 135.169 133.635 136.924 132.301 138.258L131.189 139.37" fill="#5D5FEF"/>
<path d="M127.483 143.076L122.788 138.381C120.07 135.663 120.046 131.29 122.739 128.547C125.407 125.928 129.657 125.978 132.301 128.622C133.635 129.956 134.303 131.71 134.303 133.44C134.303 135.169 133.635 136.924 132.301 138.258L131.189 139.37" stroke="white" stroke-width="2" stroke-miterlimit="10"/>
<path d="M150.783 177.101C153.451 174.383 153.451 169.985 150.733 167.267L144.803 161.337C139.219 155.752 139.219 146.66 144.803 141.076L155.675 151.947C158.467 154.739 159.876 158.421 159.876 162.078C159.876 165.735 158.467 169.416 155.675 172.208L150.857 177.027C150.808 177.076 150.783 177.101 150.783 177.101Z" fill="#5D5FEF" stroke="white" stroke-width="2" stroke-miterlimit="10"/>
<path d="M146.013 162.597L150.708 167.291C153.426 170.009 153.45 174.383 150.757 177.125C148.089 179.744 143.839 179.695 141.195 177.051C139.861 175.717 139.193 173.963 139.193 172.233C139.193 170.503 139.861 168.749 141.195 167.415L142.331 166.278" fill="#5D5FEF"/>
<path d="M146.013 162.597L150.708 167.291C153.426 170.009 153.45 174.383 150.757 177.125C148.089 179.744 143.839 179.695 141.195 177.051C139.861 175.717 139.193 173.963 139.193 172.233C139.193 170.503 139.861 168.749 141.195 167.415L142.331 166.278" stroke="white" stroke-width="2" stroke-miterlimit="10"/>
</svg>
